<svg width="70" height="70" fill="none" xmlns="http://www.w3.org/2000/svg"><path d="M42.233 34.63c1.866 0 3.45.388 4.753 1.164 1.338.741 2.342 1.712 3.01 2.912A7.712 7.712 0 0 1 51 42.518c0 3.282-1.408 5.858-4.225 7.73C43.994 52.081 39.91 53 34.523 53H20v-1.853l2.588-.053V19.435L20 19.382V17.53l10.192.106 7.71-.635c3.38 0 5.968.741 7.764 2.224 1.796 1.447 2.694 3.37 2.694 5.77 0 2.259-.758 4.218-2.271 5.877-1.514 1.623-3.732 2.929-6.655 3.917l2.8-.159zm-3.274-7.624c0-2.506-.651-4.394-1.954-5.665-1.267-1.306-3.15-1.959-5.65-1.959V34.63c2.57-.176 4.47-.882 5.703-2.117 1.267-1.27 1.901-3.106 1.901-5.506zm-7.605 24.141c3.592 0 6.197-.565 7.816-1.694 1.62-1.13 2.43-2.93 2.43-5.4s-.74-4.341-2.218-5.612c-1.444-1.27-3.591-1.906-6.443-1.906h-1.585v14.612z" fill="#464646"/></svg>