<svg xmlns="http://www.w3.org/2000/svg" width="126" height="126"><g transform="translate(-343 -877)"><circle cx="63" cy="63" r="63" transform="translate(343 877)" fill="#22366b"/><g transform="translate(380.453 915.174)" fill="none" stroke-width="2"><path transform="translate(0 43.106)" stroke="#fff" stroke-miterlimit="10" d="M0 0H51.094V6.547H0z"/><path d="M18.475 29.783a7.073 7.073 0 1 1 14.146 0" stroke="#f0c02e" stroke-miterlimit="10"/><ellipse cx="3.707" cy="3.707" rx="3.707" ry="3.707" transform="translate(21.84 15.296)" stroke="#f0c02e" stroke-miterlimit="10"/><path d="M32.62 29.953a7.073 7.073 0 0 1 14.146 0" stroke="#f0c02e" stroke-miterlimit="10"/><ellipse cx="3.707" cy="3.707" rx="3.707" ry="3.707" transform="translate(35.986 15.467)" stroke="#f0c02e" stroke-miterlimit="10"/><path d="M4.329 29.953a7.073 7.073 0 0 1 14.146 0" stroke="#f0c02e" stroke-miterlimit="10"/><ellipse cx="3.707" cy="3.707" rx="3.707" ry="3.707" transform="translate(7.695 15.467)" stroke="#f0c02e" stroke-miterlimit="10"/><path d="M11.402 14.487a7.073 7.073 0 1 1 14.146 0" stroke="#f0c02e" stroke-miterlimit="10"/><ellipse cx="3.707" cy="3.707" rx="3.707" ry="3.707" transform="translate(14.768)" stroke="#f0c02e" stroke-miterlimit="10"/><path d="M25.547 14.657a7.073 7.073 0 0 1 14.146 0" stroke="#f0c02e" stroke-miterlimit="10"/><ellipse cx="3.707" cy="3.707" rx="3.707" ry="3.707" transform="translate(28.913 .171)" stroke="#f0c02e" stroke-miterlimit="10"/><path transform="translate(9.076 36.591)" stroke="#fff" d="M0 0L34.287 0"/><path transform="translate(3.134 29.783)" stroke="#fff" stroke-miterlimit="10" d="M0 0H44.827V13.323H0z"/></g><g fill="none"><path d="M406 887a53 53 0 1 1-53 53 53 53 0 0 1 53-53z"/><path d="M406 888c-7.02 0-13.83 1.375-20.24 4.086a51.828 51.828 0 0 0-16.53 11.144 51.828 51.828 0 0 0-11.144 16.53C355.375 926.17 354 932.98 354 940c0 7.02 1.375 13.83 4.086 20.24a51.828 51.828 0 0 0 11.144 16.53 51.828 51.828 0 0 0 16.53 11.144C392.17 990.625 398.98 992 406 992c7.02 0 13.83-1.375 20.24-4.086a51.828 51.828 0 0 0 16.53-11.144 51.828 51.828 0 0 0 11.144-16.53C456.625 953.83 458 947.02 458 940c0-7.02-1.375-13.83-4.086-20.24a51.828 51.828 0 0 0-11.144-16.53 51.828 51.828 0 0 0-16.53-11.144C419.83 889.375 413.02 888 406 888m0-1c29.271 0 53 23.729 53 53s-23.729 53-53 53-53-23.729-53-53 23.729-53 53-53z" fill="#fff"/></g></g></svg>