<svg height="126" viewBox="0 0 126 126" width="126" xmlns="http://www.w3.org/2000/svg"><circle cx="63" cy="63" fill="#22366b" r="63"/><g fill="none" stroke-width="2"><path d="m37.453 81.28h51.094v6.547h-51.094z" stroke="#fff" stroke-miterlimit="10"/><path d="m17.442 28.284a7.073 7.073 0 1 1 14.146 0" stroke="#f0c02e" stroke-miterlimit="10" transform="translate(38.486 39.673)"/><ellipse cx="63" cy="57.177" rx="3.707" ry="3.707" stroke="#f0c02e" stroke-miterlimit="10"/><path d="m30.031 28.435a7.073 7.073 0 0 1 14.146 0" stroke="#f0c02e" stroke-miterlimit="10" transform="translate(40.042 39.692)"/><ellipse cx="77.146" cy="57.348" rx="3.707" ry="3.707" stroke="#f0c02e" stroke-miterlimit="10"/><path d="m4.853 28.435a7.073 7.073 0 0 1 14.146 0" stroke="#f0c02e" stroke-miterlimit="10" transform="translate(36.929 39.692)"/><ellipse cx="48.855" cy="57.348" rx="3.707" ry="3.707" stroke="#f0c02e" stroke-miterlimit="10"/><path d="m11.147 14.671a7.073 7.073 0 1 1 14.146 0" stroke="#f0c02e" stroke-miterlimit="10" transform="translate(37.708 37.99)"/><ellipse cx="55.928" cy="41.881" rx="3.707" ry="3.707" stroke="#f0c02e" stroke-miterlimit="10"/><path d="m23.736 14.822a7.073 7.073 0 0 1 14.146 0" stroke="#f0c02e" stroke-miterlimit="10" transform="translate(39.264 38.009)"/><ellipse cx="70.073" cy="42.052" rx="3.707" ry="3.707" stroke="#f0c02e" stroke-miterlimit="10"/><path d="m46.529 74.765h34.287" stroke="#fff"/><path d="m40.587 67.957h44.827v13.323h-44.827z" stroke="#fff" stroke-miterlimit="10"/><g stroke="#fff"><circle cx="63" cy="63" r="53" stroke="none"/><circle cx="63" cy="63" fill="none" r="52"/></g></g></svg>