<svg height="126" width="126" xmlns="http://www.w3.org/2000/svg"><circle cx="63" cy="63" fill="#22366b" r="63"/><g fill="none" stroke-width="2"><path d="M37.453 81.28h51.094v6.547H37.453z" stroke="#fff" stroke-miterlimit="10"/><path d="M55.928 67.957a7.073 7.073 0 1 1 14.146 0" stroke="#f0c02e" stroke-miterlimit="10"/><ellipse cx="63" cy="57.177" rx="3.707" ry="3.707" stroke="#f0c02e" stroke-miterlimit="10"/><path d="M70.073 68.127a7.073 7.073 0 0 1 14.146 0" stroke="#f0c02e" stroke-miterlimit="10"/><ellipse cx="77.146" cy="57.348" rx="3.707" ry="3.707" stroke="#f0c02e" stroke-miterlimit="10"/><path d="M41.782 68.127a7.073 7.073 0 0 1 14.146 0" stroke="#f0c02e" stroke-miterlimit="10"/><ellipse cx="48.855" cy="57.348" rx="3.707" ry="3.707" stroke="#f0c02e" stroke-miterlimit="10"/><path d="M48.855 52.661a7.073 7.073 0 1 1 14.146 0" stroke="#f0c02e" stroke-miterlimit="10"/><ellipse cx="55.928" cy="41.881" rx="3.707" ry="3.707" stroke="#f0c02e" stroke-miterlimit="10"/><path d="M63 52.831a7.073 7.073 0 0 1 14.146 0" stroke="#f0c02e" stroke-miterlimit="10"/><ellipse cx="70.073" cy="42.052" rx="3.707" ry="3.707" stroke="#f0c02e" stroke-miterlimit="10"/><path d="M46.529 74.765h34.287" stroke="#fff"/><path d="M40.587 67.957h44.827V81.28H40.587z" stroke="#fff" stroke-miterlimit="10"/><g stroke="#fff"><circle cx="63" cy="63" r="53" stroke="none"/><circle cx="63" cy="63" r="52"/></g></g></svg>