<svg height="126" width="126" xmlns="http://www.w3.org/2000/svg"><circle cx="63" cy="63" fill="#22366b" r="63"/><g fill="none" stroke-width="2"><path d="M48.172 87.827a14.755 14.755 0 1 1 29.509 0" stroke="#f0c02e" stroke-miterlimit="10"/><ellipse cx="62.927" cy="65.338" rx="7.733" ry="7.733" stroke="#f0c02e" stroke-miterlimit="10"/><ellipse cx="45.077" cy="69.42" rx="6.329" ry="6.329" stroke="#f0c02e" stroke-miterlimit="10"/><path d="M73.922 77.986a12.077 12.077 0 0 1 19.079 9.839h-60a12.078 12.078 0 0 1 18.828-10.013" stroke="#f0c02e" stroke-miterlimit="10"/><ellipse cx="80.924" cy="69.42" rx="6.329" ry="6.329" stroke="#f0c02e" stroke-miterlimit="10"/><path d="M63.246 38.374l1.8 3.653a.354.354 0 0 0 .268.194l4.03.585a.356.356 0 0 1 .2.607l-2.916 2.842a.356.356 0 0 0-.1.315l.689 4.015a.356.356 0 0 1-.516.375l-3.605-1.9a.353.353 0 0 0-.331 0l-3.605 1.9a.356.356 0 0 1-.516-.375l.685-4.011a.356.356 0 0 0-.1-.315l-2.919-2.847a.356.356 0 0 1 .2-.607l4.031-.585a.354.354 0 0 0 .267-.194l1.8-3.653a.356.356 0 0 1 .638.001z" stroke="#fff" stroke-miterlimit="10"/><path d="M45.014 48.364l.914 1.852a.356.356 0 0 0 .268.2l2.043.3a.356.356 0 0 1 .2.607l-1.479 1.442a.356.356 0 0 0-.1.315l.348 2.036a.355.355 0 0 1-.515.375l-1.829-.961a.353.353 0 0 0-.331 0l-1.829.961a.356.356 0 0 1-.516-.375l.349-2.036a.353.353 0 0 0-.1-.315l-1.483-1.45a.356.356 0 0 1 .2-.607l2.044-.3a.356.356 0 0 0 .268-.2l.913-1.852a.356.356 0 0 1 .635.008z" stroke="#fff" stroke-miterlimit="10"/><path d="M81.243 48.364l.914 1.852a.356.356 0 0 0 .267.2l2.044.3a.356.356 0 0 1 .2.607l-1.479 1.442a.356.356 0 0 0-.1.315l.349 2.036a.356.356 0 0 1-.516.375l-1.827-.961a.355.355 0 0 0-.332 0l-1.827.961a.356.356 0 0 1-.516-.375l.349-2.036a.356.356 0 0 0-.1-.315l-1.479-1.442a.356.356 0 0 1 .2-.607l2.044-.3a.356.356 0 0 0 .267-.2l.914-1.852a.356.356 0 0 1 .628 0z" stroke="#fff" stroke-miterlimit="10"/><g stroke="#fff"><circle cx="63" cy="63" r="53" stroke="none"/><circle cx="63" cy="63" r="52"/></g></g></svg>