<svg xmlns="http://www.w3.org/2000/svg" width="126" height="126"><g transform="translate(-897 -878)"><circle cx="63" cy="63" r="63" transform="translate(897 878)" fill="#22366b"/><g transform="translate(937.459 917.674)" fill="none" stroke-miterlimit="10" stroke-width="2"><path transform="translate(22.492 40.965)" stroke="#fff" d="M0 0H22.59V6.187H0z"/><path d="M2.188 35.842l17.2-17.2 4.375 4.375-17.2 17.2a3.094 3.094 0 0 1-4.375 0 3.094 3.094 0 0 1 0-4.375z" stroke="#f0c02e"/><path transform="rotate(45 3.516 31.814)" stroke="#f0c02e" d="M0 0H17.037V11.277H0z"/><path transform="rotate(-135 10.224 5.675)" stroke="#f0c02e" d="M0 0H6.676V17.247H0z"/><path transform="rotate(-135 22.017 10.656)" stroke="#f0c02e" d="M0 0H6.676V17.247H0z"/></g><g transform="translate(907 888)" fill="none" stroke="#fff"><circle cx="53" cy="53" r="53" stroke="none"/><circle cx="53" cy="53" r="52.5"/></g></g></svg>