<svg xmlns="http://www.w3.org/2000/svg" width="126" height="126"><g transform="translate(-897 -878)"><circle cx="63" cy="63" r="63" transform="translate(897 878)" fill="#22366b"/><g fill="none" stroke-miterlimit="10" stroke-width="2"><path stroke="#fff" d="M959.951 958.639h22.59v6.187h-22.59z"/><path d="M939.647 953.516l17.2-17.2 4.375 4.375-17.2 17.2a3.094 3.094 0 0 1-4.375 0 3.094 3.094 0 0 1 0-4.375z" stroke="#f0c02e"/><path stroke="#f0c02e" d="M960.985 924.506l12.047 12.047-7.974 7.974-12.047-12.047z"/><path stroke="#f0c02e" d="M950.9 934.591l-4.721-4.72 12.195-12.196 4.721 4.72z"/><path stroke="#f0c02e" d="M967.51 951.433l-4.721-4.72 12.195-12.196 4.72 4.72z"/></g><g transform="translate(907 888)" fill="none" stroke="#fff" stroke-width="2"><circle cx="53" cy="53" r="53" stroke="none"/><circle cx="53" cy="53" r="52"/></g></g></svg>