<svg xmlns="http://www.w3.org/2000/svg" width="126" height="126" viewBox="0 0 126 126"><g transform="translate(-343 -877)"><circle cx="63" cy="63" r="63" transform="translate(343 877)" fill="#22366b"/><g transform="translate(460.416 992.88)"><g transform="translate(-79.963 -77.706)"><rect width="51.094" height="6.547" transform="translate(0 43.106)" fill="none" stroke="#fff" stroke-miterlimit="10" stroke-width="2"/><path d="M17.442,28.284a7.073,7.073,0,1,1,14.146,0" transform="translate(1.033 1.499)" fill="none" stroke="#f0c02e" stroke-miterlimit="10" stroke-width="2"/><ellipse cx="3.707" cy="3.707" rx="3.707" ry="3.707" transform="translate(21.84 15.296)" fill="none" stroke="#f0c02e" stroke-miterlimit="10" stroke-width="2"/><path d="M30.031,28.435a7.073,7.073,0,0,1,14.146,0" transform="translate(2.589 1.518)" fill="none" stroke="#f0c02e" stroke-miterlimit="10" stroke-width="2"/><ellipse cx="3.707" cy="3.707" rx="3.707" ry="3.707" transform="translate(35.986 15.467)" fill="none" stroke="#f0c02e" stroke-miterlimit="10" stroke-width="2"/><path d="M4.853,28.435a7.073,7.073,0,0,1,14.146,0" transform="translate(-0.524 1.518)" fill="none" stroke="#f0c02e" stroke-miterlimit="10" stroke-width="2"/><ellipse cx="3.707" cy="3.707" rx="3.707" ry="3.707" transform="translate(7.695 15.467)" fill="none" stroke="#f0c02e" stroke-miterlimit="10" stroke-width="2"/><path d="M11.147,14.671a7.073,7.073,0,1,1,14.146,0" transform="translate(0.255 -0.184)" fill="none" stroke="#f0c02e" stroke-miterlimit="10" stroke-width="2"/><ellipse cx="3.707" cy="3.707" rx="3.707" ry="3.707" transform="translate(14.768)" fill="none" stroke="#f0c02e" stroke-miterlimit="10" stroke-width="2"/><path d="M23.736,14.822a7.073,7.073,0,0,1,14.146,0" transform="translate(1.811 -0.165)" fill="none" stroke="#f0c02e" stroke-miterlimit="10" stroke-width="2"/><ellipse cx="3.707" cy="3.707" rx="3.707" ry="3.707" transform="translate(28.913 0.171)" fill="none" stroke="#f0c02e" stroke-miterlimit="10" stroke-width="2"/><line x2="34.287" transform="translate(9.076 36.591)" fill="none" stroke="#fff" stroke-width="2"/><rect width="44.827" height="13.323" transform="translate(3.134 29.783)" fill="none" stroke="#fff" stroke-miterlimit="10" stroke-width="2"/></g></g><g transform="translate(353 887)" fill="none"><path d="M53,0A53,53,0,1,1,0,53,53,53,0,0,1,53,0Z" stroke="none"/><path d="M 53 1 C 45.97959899902344 1 39.16974639892578 2.374725341796875 32.75955963134766 5.086013793945312 C 26.56755828857422 7.705001831054688 21.00635528564453 11.45454406738281 16.23044586181641 16.23044586181641 C 11.45454406738281 21.00635528564453 7.705001831054688 26.56755828857422 5.086013793945312 32.75955963134766 C 2.374725341796875 39.16974639892578 1 45.97959899902344 1 53 C 1 60.02040100097656 2.374725341796875 66.83026123046875 5.086013793945312 73.24044799804688 C 7.705001831054688 79.43244171142578 11.45454406738281 84.99364471435547 16.23044586181641 89.76956176757812 C 21.00635528564453 94.54545593261719 26.56755828857422 98.29499816894531 32.75955963134766 100.9139862060547 C 39.16974639892578 103.6252746582031 45.97959899902344 105 53 105 C 60.02040100097656 105 66.83026123046875 103.6252746582031 73.24044799804688 100.9139862060547 C 79.43244171142578 98.29499816894531 84.99364471435547 94.54545593261719 89.76956176757812 89.76956176757812 C 94.54545593261719 84.99364471435547 98.29499816894531 79.43244171142578 100.9139862060547 73.24044799804688 C 103.6252746582031 66.83026123046875 105 60.02040100097656 105 53 C 105 45.97959899902344 103.6252746582031 39.16974639892578 100.9139862060547 32.75955963134766 C 98.29499816894531 26.56755828857422 94.54545593261719 21.00635528564453 89.76956176757812 16.23044586181641 C 84.99364471435547 11.45454406738281 79.43244171142578 7.705001831054688 73.24044799804688 5.086013793945312 C 66.83026123046875 2.374725341796875 60.02040100097656 1 53 1 M 53 0 C 82.27108764648438 0 106 23.72891235351562 106 53 C 106 82.27108764648438 82.27108764648438 106 53 106 C 23.72891235351562 106 0 82.27108764648438 0 53 C 0 23.72891235351562 23.72891235351562 0 53 0 Z" stroke="none" fill="#fff"/></g></g></svg>