<svg height="126" viewBox="0 0 126 126" width="126" xmlns="http://www.w3.org/2000/svg"><g transform="translate(-46 -1909)"><circle cx="109" cy="1972" fill="#22366b" r="63"/><g fill="none" stroke="#fff" stroke-width="2"><circle cx="109" cy="1972" r="53" stroke="none"/><circle cx="109" cy="1972" fill="none" r="52"/></g><path d="m26.631 18.8a7.833 7.833 0 1 1 -7.831-7.834 7.831 7.831 0 0 1 7.831 7.834zm-7.831 4.7a4.7 4.7 0 1 0 -4.7-4.7 4.7 4.7 0 0 0 4.7 4.7zm18.8-4.7c0 8.557-11.455 23.792-16.478 30.078a2.958 2.958 0 0 1 -4.641 0c-5.114-6.287-16.481-21.522-16.481-30.078a18.8 18.8 0 1 1 37.6 0zm-18.8-15.667a15.661 15.661 0 0 0 -15.667 15.667 17.184 17.184 0 0 0 1.621 6.207 60.653 60.653 0 0 0 4.267 8.038 146.432 146.432 0 0 0 9.779 13.717 147.1 147.1 0 0 0 9.78-13.718 60.9 60.9 0 0 0 4.259-8.038 17.063 17.063 0 0 0 1.625-6.206 15.661 15.661 0 0 0 -15.664-15.667z" fill="#f0c02e" transform="translate(90.201 1947)"/></g></svg>